<?xml version="1.0" encoding="UTF-8"?>
<!DOCTYPE svg PUBLIC "-//W3C//DTD SVG 1.1//EN" "http://www.w3.org/Graphics/SVG/1.1/DTD/svg11.dtd">
<!-- Creator: CorelDRAW -->
<svg xmlns="http://www.w3.org/2000/svg" xml:space="preserve" width="6.82666in" height="6.82666in" style="shape-rendering:geometricPrecision; text-rendering:geometricPrecision; image-rendering:optimizeQuality; fill-rule:evenodd; clip-rule:evenodd"
viewBox="0 0 6.82666 6.82666"
 xmlns:xlink="http://www.w3.org/1999/xlink">
 <defs>
  <style type="text/css">
   <![CDATA[
    .fil2 {fill:none}
    .fil0 {fill:none}
    .fil1 {fill:#FFFFFE;fill-rule:nonzero}
   ]]>
  </style>
 </defs>
 <rect class="fil0" width="6.82666" height="6.82666"/>
 <g id="Layer_x0020_1">
  <metadata id="CorelCorpID_0Corel-Layer"/>
  <path class="fil1" d="M3.90008 2.50506l-1.20439 2.4016 3.06205 0 -0.945744 -1.77731 -0.272193 0.257587 0.000385827 0.000409449c-0.0427874,0.0404921 -0.110303,0.0386299 -0.150795,-0.00415748 -0.009,-0.00950787 -0.0159016,-0.0202402 -0.0207323,-0.031622l-0.468587 -0.846508zm-1.47165 2.46066l1.36763 -2.72711c0.00873228,-0.0223622 0.0250276,-0.0419252 0.0476732,-0.0544606 0.0515394,-0.0285276 0.116453,-0.00987402 0.14498,0.0416654l-0.0933228 0.0516575 0.0929173 -0.051252 0.505091 0.912457 0.265898 -0.25163c0.00842913,-0.00985039 0.0188071,-0.0183228 0.0309449,-0.0247795 0.0520039,-0.0276693 0.116602,-0.00794488 0.144272,0.0440591l-0.000366142 0.00019685 1.09007 2.04854c0.0109488,0.016752 0.0173189,0.0367638 0.0173189,0.0582677 0,0.0589094 -0.0477598,0.106669 -0.106669,0.106669l-3.40987 0c-0.0166181,0.00026378 -0.0335472,-0.00335433 -0.0494331,-0.0113189 -0.0526575,-0.0264055 -0.0739409,-0.0905079 -0.0475354,-0.143165l0.000405512 0.000204724z"/>
  <path class="fil1" d="M3.22656 3.3866c-0.0418819,0.041189 -0.0424409,0.108535 -0.00125197,0.150417 0.041189,0.0418819 0.108535,0.0424409 0.150417,0.00125197l0.243811 -0.238827 0.0714213 0.112287 0.09 -0.0570827 -0.0900039 0.057248c0.0316142,0.0497047 0.0975472,0.0643701 0.147252,0.0327559 0.0101614,-0.00646063 0.0188583,-0.0143622 0.0259921,-0.0232598l0.143307 -0.155988 0.0968858 0.157646 -3.93701e-005 2.3622e-005c0.0308425,0.050189 0.0965394,0.0658701 0.146728,0.0350276 0.0146496,-0.00900394 0.0263583,-0.0209764 0.0348268,-0.0346693l0.158862 -0.211177c0.0352087,-0.0469409 0.0256929,-0.113543 -0.021248,-0.148752 -0.0469409,-0.0352087 -0.113543,-0.0256929 -0.148752,0.021248l-0.0704449 0.0936378 -0.0869724 -0.141516c-0.00534646,-0.0094252 -0.0122283,-0.0181929 -0.0206378,-0.0259213 -0.0433819,-0.0398543 -0.110862,-0.0369961 -0.150717,0.00638583l0.00015748 0.000145669 -0.149701 0.162949 -0.0648622 -0.101969c-0.00441732,-0.00770472 -0.00988189,-0.0149843 -0.0163858,-0.021626 -0.0412205,-0.0420827 -0.10876,-0.0427795 -0.150843,-0.00155906l0.0746417 0.0762008 -0.0745827 -0.0758346 -0.337862 0.330957z"/>
  <path class="fil1" d="M2.71678 3.51195c0.0418819,0.041189 0.109228,0.0406299 0.150417,-0.00125197 0.041189,-0.0418819 0.0406299,-0.109228 -0.00125197,-0.150417l-0.204543 -0.200358 -0.0745827 0.0758346 0.0746417 -0.0762008c-0.0420827,-0.0412205 -0.109622,-0.0405236 -0.150843,0.00155906 -0.00650394,0.00664173 -0.0119685,0.0139213 -0.0163858,0.021626l-0.057189 0.0899055 -0.136531 -0.148614 0.00015748 -0.000145669c-0.0398543,-0.0433819 -0.107335,-0.0462402 -0.150717,-0.00638583 -0.00840945,0.00772835 -0.0152913,0.0164961 -0.0206378,0.0259213l-0.0670669 0.109126 -0.065563 -0.110661c-0.0299134,-0.050622 -0.0952087,-0.0674134 -0.145831,-0.0375 -0.050622,0.0299134 -0.0674134,0.0952087 -0.0375,0.145831l0.152331 0.25711c0.0086063,0.0168701 0.021811,0.0316654 0.0391299,0.0423071 0.050189,0.0308425 0.115886,0.0151614 0.146728,-0.0350276l-3.93701e-005 -2.3622e-005 0.0876575 -0.14263 0.130138 0.141654c0.00713386,0.00889764 0.0158307,0.0167992 0.0259921,0.0232598 0.0497047,0.0316142 0.115638,0.0169488 0.147252,-0.0327559l-0.0900039 -0.057248 0.09 0.0570827 0.063752 -0.100224 0.110488 0.108228z"/>
  <path class="fil1" d="M1.99586 3.25189c0.0308346,-0.0501654 0.0151654,-0.115835 -0.035,-0.146669 -0.0501654,-0.0308346 -0.115835,-0.0151654 -0.146669,0.035l-0.0797165 0.129709 -0.0615472 -0.081815c-0.0352087,-0.0469409 -0.101811,-0.0564567 -0.148752,-0.021248 -0.0469409,0.0352087 -0.0564567,0.101811 -0.021248,0.148752l0.149972 0.19935c0.0084685,0.013689 0.0201732,0.0256654 0.0348228,0.0346693 0.050189,0.0308425 0.115886,0.0151614 0.146728,-0.0350276l-3.93701e-005 -2.3622e-005 0.161449 -0.262697z"/>
  <path class="fil1" d="M3.00372 3.90604c0.0262323,0.0524646 0.0900354,0.0737323 0.1425,0.0475 0.0524646,-0.0262323 0.0737323,-0.0900354 0.0475,-0.1425l-0.909071 -1.81273 -0.095 0.0475 0.0953504 -0.047815c-0.0264055,-0.0526575 -0.0905079,-0.0739409 -0.143165,-0.0475354 -0.0245276,0.0122992 -0.0422441,0.0327835 -0.0515118,0.0564764l-1.29346 2.57923 -0.000409449 -0.000204724c-0.0264094,0.0526575 -0.00512598,0.11676 0.0475315,0.143169 0.0159252,0.00798819 0.0329016,0.0116063 0.0495591,0.0113189l1.81163 0c0.0589094,0 0.106669,-0.0477598 0.106669,-0.106669 0,-0.0589094 -0.0477598,-0.106669 -0.106669,-0.106669l-1.64106 0 1.12554 -2.24437 0.814071 1.6233z"/>
  <rect class="fil2" width="6.82666" height="6.82666"/>
 </g>
</svg>
